<svg width="20" height="20" viewBox="0 0 20 20" fill="none" xmlns="http://www.w3.org/2000/svg">
<path d="M8.16669 8.16675L4.97502 15.0251L11.8334 11.8334L15.025 4.97508L8.16669 8.16675ZM10.9 10.6417C10.725 10.8834 10.475 11.0417 10.1834 11.0917C10.125 11.1001 10.0584 11.1084 10 11.1084C9.76669 11.1084 9.55002 11.0417 9.35835 10.9001C9.11669 10.7251 8.95835 10.4751 8.90835 10.1834C8.85835 9.89175 8.92502 9.59175 9.10002 9.35841C9.27502 9.11675 9.52502 8.95841 9.81669 8.90841C10.1084 8.85841 10.4 8.92508 10.6417 9.10008C10.8834 9.27508 11.0417 9.52508 11.0917 9.81675C11.1417 10.1084 11.075 10.4001 10.9 10.6417ZM10 2.50008C14.1334 2.50008 17.5 5.86675 17.5 10.0001C17.5 14.1334 14.1334 17.5001 10 17.5001C5.86669 17.5001 2.50002 14.1334 2.50002 10.0001C2.50002 5.86675 5.86669 2.50008 10 2.50008ZM10 1.66675C5.40002 1.66675 1.66669 5.40008 1.66669 10.0001C1.66669 14.6001 5.40002 18.3334 10 18.3334C14.6 18.3334 18.3334 14.6001 18.3334 10.0001C18.3334 5.40008 14.6 1.66675 10 1.66675Z" fill="currentColor"/>
</svg>
