<svg width="20" height="20" viewBox="0 0 20 20" fill="none" xmlns="http://www.w3.org/2000/svg">
<path d="M12.8 8.29984C12.8 9.20817 12.2417 9.6915 11.7084 10.1665C11.2667 10.5582 10.85 10.9165 10.7417 11.4998L10.7084 11.6665H9.25002L9.27502 11.4332C9.39169 10.4582 9.94169 9.9665 10.5 9.5415C10.9334 9.20817 11.3417 8.89984 11.3417 8.29984C11.3417 7.87484 11.15 7.4915 10.8167 7.22484C10.4834 6.9665 10.05 6.87484 9.63335 6.98317C9.14169 7.10817 8.75835 7.5415 8.64169 8.09984L8.60002 8.33317H7.14169L7.19169 7.98317C7.35835 6.8165 8.15002 5.87484 9.20835 5.5915C10.0834 5.34984 10.9917 5.52484 11.6917 6.0665C12.4 6.59984 12.8 7.4165 12.8 8.29984ZM10 14.9998C10.4584 14.9998 10.8334 14.6248 10.8334 14.1665C10.8334 13.7082 10.4584 13.3332 10 13.3332C9.54169 13.3332 9.16669 13.7082 9.16669 14.1665C9.16669 14.6248 9.54169 14.9998 10 14.9998ZM10 2.49984C5.86669 2.49984 2.50002 5.8665 2.50002 9.99984C2.50002 14.1332 5.86669 17.4998 10 17.4998C14.1334 17.4998 17.5 14.1332 17.5 9.99984C17.5 5.8665 14.1334 2.49984 10 2.49984ZM10 1.6665C14.6 1.6665 18.3334 5.39984 18.3334 9.99984C18.3334 14.5998 14.6 18.3332 10 18.3332C5.40002 18.3332 1.66669 14.5998 1.66669 9.99984C1.66669 5.39984 5.40002 1.6665 10 1.6665Z" fill="currentColor"/>
</svg>
