<svg width="20" height="20" viewBox="0 0 20 20" fill="none" xmlns="http://www.w3.org/2000/svg">
<path d="M11.6667 10.0001C11.6667 10.9168 10.9167 11.6668 10 11.6668C9.08335 11.6668 8.33335 10.9168 8.33335 10.0001C8.33335 9.08343 9.08335 8.33343 10 8.33343C10.9167 8.33343 11.6667 9.08343 11.6667 10.0001ZM7.06669 7.04176L6.47502 6.45843C5.56669 7.35843 5.00002 8.61677 5.00002 10.0001C5.00002 11.3834 5.56669 12.6418 6.47502 13.5418L7.06669 12.9501C6.30835 12.2001 5.83335 11.1584 5.83335 10.0001C5.83335 8.84176 6.30835 7.8001 7.06669 7.04176ZM13.525 6.45843L12.9334 7.0501C13.6917 7.8001 14.1667 8.84176 14.1667 10.0001C14.1667 11.1584 13.6917 12.2001 12.9334 12.9584L13.525 13.5501C14.4334 12.6418 15 11.3834 15 10.0001C15 8.61677 14.4334 7.35843 13.525 6.45843ZM4.70835 4.69176L4.12502 4.1001C2.60835 5.60843 1.66669 7.7001 1.66669 10.0001C1.66669 12.3001 2.60835 14.3918 4.12502 15.9001L4.71669 15.3084C3.35002 13.9501 2.50002 12.0751 2.50002 10.0001C2.50002 7.9251 3.35002 6.0501 4.70835 4.69176ZM15.875 4.1001L15.2834 4.69176C16.65 6.0501 17.5 7.9251 17.5 10.0001C17.5 12.0751 16.65 13.9501 15.2917 15.3084L15.8834 15.9001C17.3917 14.3918 18.3334 12.3001 18.3334 10.0001C18.3334 7.7001 17.3917 5.60843 15.875 4.1001Z" fill="currentColor"/>
</svg>
