<svg width="20" height="20" viewBox="0 0 20 20" fill="none" xmlns="http://www.w3.org/2000/svg">
<path d="M8.33336 7.79175L12.5 10.0001L8.33336 12.2084V7.79175ZM10 5.00008C7.89522 4.95912 5.79012 5.06493 3.70003 5.31675C3.48938 5.37583 3.29747 5.48812 3.14277 5.64282C2.98807 5.79752 2.87577 5.98943 2.8167 6.20008C2.59345 7.45418 2.48744 8.72633 2.50003 10.0001C2.48744 11.2738 2.59345 12.546 2.8167 13.8001C2.87577 14.0107 2.98807 14.2026 3.14277 14.3573C3.29747 14.512 3.48938 14.6243 3.70003 14.6834C5.79012 14.9352 7.89522 15.041 10 15.0001C12.1048 15.041 14.2099 14.9352 16.3 14.6834C16.5107 14.6243 16.7026 14.512 16.8573 14.3573C17.012 14.2026 17.1243 14.0107 17.1834 13.8001C17.4066 12.546 17.5126 11.2738 17.5 10.0001C17.5126 8.72633 17.4066 7.45418 17.1834 6.20008C17.1243 5.98943 17.012 5.79752 16.8573 5.64282C16.7026 5.48812 16.5107 5.37583 16.3 5.31675C14.2099 5.06493 12.1048 4.95912 10 5.00008ZM10 4.16675C10 4.16675 15.2084 4.16675 16.5084 4.51675C16.8618 4.61204 17.184 4.79842 17.4429 5.05726C17.7017 5.31609 17.8881 5.63832 17.9834 5.99175C18.2247 7.31403 18.3419 8.65598 18.3334 10.0001C18.3419 11.3442 18.2247 12.6861 17.9834 14.0084C17.8881 14.3618 17.7017 14.6841 17.4429 14.9429C17.184 15.2017 16.8618 15.3881 16.5084 15.4834C15.2084 15.8334 10 15.8334 10 15.8334C10 15.8334 4.7917 15.8334 3.4917 15.4834C3.13827 15.3881 2.81604 15.2017 2.5572 14.9429C2.29837 14.6841 2.11199 14.3618 2.0167 14.0084C1.77533 12.6861 1.65815 11.3442 1.6667 10.0001C1.65815 8.65598 1.77533 7.31403 2.0167 5.99175C2.11199 5.63832 2.29837 5.31609 2.5572 5.05726C2.81604 4.79842 3.13827 4.61204 3.4917 4.51675C4.7917 4.16675 10 4.16675 10 4.16675Z" fill="currentColor"/>
</svg>
