<svg width="20" height="20" viewBox="0 0 20 20" fill="none" xmlns="http://www.w3.org/2000/svg">
<path d="M12.475 14.1251L8.33335 11.5584V5.83342H10V10.6334L13.3584 12.7084L12.475 14.1251ZM10 2.50008C5.86669 2.50008 2.50002 5.86675 2.50002 10.0001C2.50002 14.1334 5.86669 17.5001 10 17.5001C14.1334 17.5001 17.5 14.1334 17.5 10.0001C17.5 5.86675 14.1334 2.50008 10 2.50008ZM10 1.66675C14.6 1.66675 18.3334 5.40008 18.3334 10.0001C18.3334 14.6001 14.6 18.3334 10 18.3334C5.40002 18.3334 1.66669 14.6001 1.66669 10.0001C1.66669 5.40008 5.40002 1.66675 10 1.66675Z" fill="currentColor"/>
</svg>
