<svg width="12" height="16" viewBox="0 0 12 16" fill="none" xmlns="http://www.w3.org/2000/svg">
<path d="M6.00004 0.5C4.61671 0.5 3.50004 1.64167 3.50004 3.05833V7.94167C3.50004 9.35833 4.61671 10.5 6.00004 10.5C7.38337 10.5 8.50004 9.35833 8.50004 7.94167V3.05833C8.50004 1.64167 7.38337 0.5 6.00004 0.5ZM11.4167 8H10.5834C10.5834 10.525 8.52504 12.5833 6.00004 12.5833C3.47504 12.5833 1.41671 10.525 1.41671 8H0.583374C0.583374 10.7 2.57504 12.9417 5.16671 13.3417V15.5H6.83337V13.3417C9.42504 12.9417 11.4167 10.7 11.4167 8Z" fill="currentColor"/>
</svg>
