<svg width="20" height="20" viewBox="0 0 20 20" fill="none" xmlns="http://www.w3.org/2000/svg">
<path d="M12.475 14.1251L8.33336 11.5584V5.83342H10V10.6334L13.3584 12.7084L12.475 14.1251ZM18.3334 10.0001C18.3334 14.5917 14.5917 18.3334 10 18.3334C5.40836 18.3334 1.6667 14.5917 1.6667 10.0001H2.50003C2.50003 14.1334 5.8667 17.5001 10 17.5001C14.1334 17.5001 17.5 14.1334 17.5 10.0001C17.5 5.86675 14.1334 2.50008 10 2.50008C7.3417 2.50008 4.93336 3.86675 3.5667 6.15008C3.47503 6.30008 3.38336 6.45842 3.30836 6.61675C3.30003 6.63342 3.2917 6.65008 3.28336 6.66675H6.6667V7.50008H1.63336V2.50008H2.4667V6.45008C2.50003 6.37508 2.52503 6.30841 2.55836 6.24175C2.65003 6.05841 2.75003 5.89175 2.85003 5.71675C4.35003 3.21675 7.0917 1.66675 10 1.66675C14.5917 1.66675 18.3334 5.40841 18.3334 10.0001Z" fill="currentColor"/>
</svg>
