<svg width="20" height="20" viewBox="0 0 20 20" fill="none" xmlns="http://www.w3.org/2000/svg">
<path d="M13.3333 3.33325V6.66658H16.6666V3.33325H13.3333ZM15.8333 5.83325H14.1666V4.16659H15.8333V5.83325ZM13.3333 8.33325V11.6666H16.6666V8.33325H13.3333ZM15.8333 10.8333H14.1666V9.16658H15.8333V10.8333ZM8.33331 3.33325V6.66658H11.6666V3.33325H8.33331ZM10.8333 5.83325H9.16665V4.16659H10.8333V5.83325ZM8.33331 8.33325V11.6666H11.6666V8.33325H8.33331ZM10.8333 10.8333H9.16665V9.16658H10.8333V10.8333ZM13.3333 13.3333V16.6666H16.6666V13.3333H13.3333ZM15.8333 15.8333H14.1666V14.1666H15.8333V15.8333ZM8.33331 13.3333V16.6666H11.6666V13.3333H8.33331ZM10.8333 15.8333H9.16665V14.1666H10.8333V15.8333ZM3.33331 3.33325V6.66658H6.66665V3.33325H3.33331ZM5.83331 5.83325H4.16665V4.16659H5.83331V5.83325ZM3.33331 8.33325V11.6666H6.66665V8.33325H3.33331ZM5.83331 10.8333H4.16665V9.16658H5.83331V10.8333ZM3.33331 13.3333V16.6666H6.66665V13.3333H3.33331ZM5.83331 15.8333H4.16665V14.1666H5.83331V15.8333Z" fill="currentColor"/>
</svg>
