<svg width="14" height="18" viewBox="0 0 14 18" fill="none" xmlns="http://www.w3.org/2000/svg">
<path d="M5.33337 15.6666H8.66671C8.66671 16.5833 7.91671 17.3333 7.00004 17.3333C6.08337 17.3333 5.33337 16.5833 5.33337 15.6666ZM13.6667 13.4583V14.8333H0.333374V13.4583L2.00004 11.8916V7.59993C2.00004 5.1666 3.30004 3.24993 5.33337 2.6166V2.29993C5.33337 1.1166 6.57504 0.216596 7.82504 0.833262C8.36671 1.09993 8.66671 1.6916 8.66671 2.29993V2.62493C10.7 3.24993 12 5.17493 12 7.60826V11.8999L13.6667 13.4583ZM12.8334 13.8083L11.1667 12.2416V7.68326C11.1667 5.62493 10.175 4.04993 8.55837 3.43326C7.50837 2.9916 6.35837 3.0166 5.35837 3.45826C3.79171 4.0916 2.83337 5.65826 2.83337 7.68326V12.2416L1.16671 13.8083V13.9999H12.8334V13.8083Z" fill="currentColor"/>
</svg>
