<svg width="20" height="20" viewBox="0 0 20 20" fill="none" xmlns="http://www.w3.org/2000/svg">
<path d="M15.6417 9.16658H12.1167L13.3833 5.04992C13.65 4.19159 12.95 3.33325 11.9833 3.33325C11.5 3.33325 11.0333 3.53325 10.7167 3.87492L5.83333 9.16658H2.5V17.4999H5.83333H6.66667H14.525C15.4083 17.4999 16.175 16.9416 16.35 16.1583L17.4667 11.1583C17.6917 10.1249 16.8167 9.16658 15.6417 9.16658ZM5.83333 16.6666H3.33333V9.99992H5.83333V16.6666ZM16.65 10.9749L15.5333 15.9749C15.45 16.3749 15.025 16.6666 14.525 16.6666H6.66667V9.49159L11.3333 4.44159C11.4917 4.26659 11.7333 4.16659 11.9833 4.16659C12.2 4.16659 12.4 4.25825 12.5083 4.41659C12.5667 4.49992 12.6333 4.63325 12.5833 4.80825L11.3167 8.92492L10.9833 9.99992H12.1083H15.6333C15.975 9.99992 16.3 10.1416 16.4917 10.3833C16.6 10.5083 16.7083 10.7166 16.65 10.9749Z" fill="currentColor"/>
</svg>
