<svg width="14" height="14" viewBox="0 0 14 14" fill="none" xmlns="http://www.w3.org/2000/svg">
<path d="M10.3334 0.333252V3.66658H13.6667V0.333252H10.3334ZM12.8334 2.83325H11.1667V1.16659H12.8334V2.83325ZM10.3334 5.33325V8.66658H13.6667V5.33325H10.3334ZM12.8334 7.83325H11.1667V6.16658H12.8334V7.83325ZM5.33337 0.333252V3.66658H8.66671V0.333252H5.33337ZM7.83337 2.83325H6.16671V1.16659H7.83337V2.83325ZM5.33337 5.33325V8.66658H8.66671V5.33325H5.33337ZM7.83337 7.83325H6.16671V6.16658H7.83337V7.83325ZM10.3334 10.3333V13.6666H13.6667V10.3333H10.3334ZM12.8334 12.8333H11.1667V11.1666H12.8334V12.8333ZM5.33337 10.3333V13.6666H8.66671V10.3333H5.33337ZM7.83337 12.8333H6.16671V11.1666H7.83337V12.8333ZM0.333374 0.333252V3.66658H3.66671V0.333252H0.333374ZM2.83337 2.83325H1.16671V1.16659H2.83337V2.83325ZM0.333374 5.33325V8.66658H3.66671V5.33325H0.333374ZM2.83337 7.83325H1.16671V6.16658H2.83337V7.83325ZM0.333374 10.3333V13.6666H3.66671V10.3333H0.333374ZM2.83337 12.8333H1.16671V11.1666H2.83337V12.8333Z" fill="black"/>
</svg>
