<svg width="20" height="20" viewBox="0 0 20 20" fill="none" xmlns="http://www.w3.org/2000/svg">
<path d="M14.1666 2.49984V4.1665V4.99984V8.33317V8.75817L14.1583 9.1415C14.1166 10.9165 13.05 12.4498 11.45 13.0582H11.4333L11.3833 13.0748L10.8333 13.2915V13.8748V15.8332V16.6665H11.6666V17.4998H12.5H8.33331V16.6665H9.16665V15.8332V13.8748V13.2915L8.61665 13.0915L8.54998 13.0665H8.54165C6.94165 12.4582 5.87498 10.9248 5.83331 9.14984V8.75817V8.33317V4.99984V4.1665V2.49984H14.1666ZM15 1.6665H4.99998V4.1665H3.33331V4.99984V8.33317V9.1665H5.00831C5.05831 11.2748 6.35831 13.1498 8.30831 13.8665C8.31665 13.8665 8.32498 13.8665 8.33331 13.8748V15.8332H7.49998V16.6665H6.66665V18.3332H13.3333V16.6665H12.5V15.8332H11.6666V13.8748C11.675 13.8748 11.6833 13.8748 11.6916 13.8665C13.6333 13.1498 14.9416 11.2832 14.9916 9.1665H16.6666V8.33317V4.99984V4.1665H15V1.6665ZM15 8.33317V4.99984H15.8333V8.33317H15ZM4.16665 8.33317V4.99984H4.99998V8.33317H4.16665Z" fill="currentColor"/>
</svg>
