<svg width="20" height="20" viewBox="0 0 20 20" fill="none" xmlns="http://www.w3.org/2000/svg">
<path d="M10 7.49984C11.375 7.49984 12.5 8.62484 12.5 9.99984C12.5 11.3748 11.375 12.4998 10 12.4998C8.62501 12.4998 7.50001 11.3748 7.50001 9.99984C7.50001 8.62484 8.62501 7.49984 10 7.49984ZM10 6.6665C8.15834 6.6665 6.66668 8.15817 6.66668 9.99984C6.66668 11.8415 8.15834 13.3332 10 13.3332C11.8417 13.3332 13.3333 11.8415 13.3333 9.99984C13.3333 8.15817 11.8417 6.6665 10 6.6665ZM11.0167 2.49984L11.475 4.33317L11.5833 4.75817L12 4.90817C12.5083 5.09984 12.9917 5.37484 13.4333 5.72484L13.7667 5.9915L14.1833 5.87484L15.9917 5.35817L17.0083 7.1165L15.65 8.4415L15.3417 8.7415L15.4083 9.1665C15.45 9.43317 15.475 9.69984 15.475 9.98317C15.475 10.2665 15.45 10.5332 15.4083 10.7998L15.3417 11.2248L15.65 11.5248L17.0083 12.8498L15.9917 14.6082L14.1833 14.0915L13.7667 13.9748L13.4333 14.2415C12.9917 14.5998 12.5083 14.8748 12 15.0582L11.5833 15.2082L11.475 15.6332L11.0167 17.4998H8.98334L8.52501 15.6665L8.41668 15.2415L8.00001 15.0915C7.50001 14.8998 7.01668 14.6248 6.56668 14.2665L6.23335 13.9998L5.81668 14.1165L4.00835 14.6332L3.00001 12.8665L4.35835 11.5415L4.66668 11.2415L4.60001 10.8165C4.55835 10.5498 4.53335 10.2748 4.53335 9.99984C4.53335 9.72484 4.55835 9.44984 4.60001 9.18317L4.66668 8.75817L4.35835 8.45817L3.00001 7.13317L4.01668 5.37484L5.82501 5.8915L6.24168 6.00817L6.57501 5.7415C7.01668 5.37484 7.50001 5.09984 8.00834 4.9165L8.42501 4.7665L8.53334 4.3415L8.98334 2.49984H11.0167ZM11.6667 1.6665H8.33334L7.71668 4.13317C7.10835 4.35817 6.55001 4.68317 6.05001 5.08317L3.61668 4.3915L1.95001 7.27484L3.77501 9.04984C3.72501 9.35817 3.70001 9.67484 3.70001 9.99984C3.70001 10.3248 3.72501 10.6415 3.77501 10.9498L1.95001 12.7248L3.61668 15.6082L6.05001 14.9165C6.55001 15.3165 7.10835 15.6415 7.71668 15.8665L8.33334 18.3332H11.6667L12.2833 15.8665C12.8917 15.6415 13.45 15.3165 13.95 14.9165L16.3833 15.6082L18.05 12.7248L16.225 10.9498C16.275 10.6415 16.3 10.3248 16.3 9.99984C16.3 9.67484 16.275 9.35817 16.225 9.04984L18.05 7.27484L16.3833 4.3915L13.95 5.08317C13.45 4.68317 12.8917 4.35817 12.2833 4.13317L11.6667 1.6665Z" fill="currentColor"/>
</svg>
