<svg width="20" height="20" viewBox="0 0 20 20" fill="none" xmlns="http://www.w3.org/2000/svg">
<path d="M8.33335 9.99992H6.66669V11.6666H5.00002V9.99992H3.33335V8.33325H5.00002V6.66658H6.66669V8.33325H8.33335V9.99992ZM14.1667 10.4166C14.1667 9.72492 13.6084 9.16658 12.9167 9.16658C12.225 9.16658 11.6667 9.72492 11.6667 10.4166C11.6667 11.1083 12.225 11.6666 12.9167 11.6666C13.6084 11.6666 14.1667 11.1083 14.1667 10.4166ZM16.6667 7.91658C16.6667 7.22492 16.1084 6.66658 15.4167 6.66658C14.725 6.66658 14.1667 7.22492 14.1667 7.91658C14.1667 8.60825 14.725 9.16658 15.4167 9.16658C16.1084 9.16658 16.6667 8.60825 16.6667 7.91658ZM14.1417 4.29159L10.3917 6.39992L9.98335 6.62492L9.57502 6.39992L5.82502 4.29159L2.50002 6.15825V11.5166L9.98335 15.7166L17.4667 11.5166V6.15825L14.1417 4.29159ZM14.1417 3.33325L18.3 5.66659V11.9999L9.98335 16.6666L1.66669 11.9999V5.66659L5.82502 3.33325L9.98335 5.66659L14.1417 3.33325Z" fill="currentColor"/>
</svg>
