<svg width="159" height="20" viewBox="0 0 159 20" fill="none" xmlns="http://www.w3.org/2000/svg">
<g clip-path="url(#clip0_201_2740)">
<path d="M27.9728 3.12324C27.6436 1.89323 26.6769 0.926623 25.4469 0.597366C23.2198 1.78814e-07 14.2851 0 14.2851 0C14.2851 0 5.35054 1.78814e-07 3.12335 0.597366C1.89335 0.926623 0.926745 1.89323 0.597488 3.12324C0.000122249 5.35042 0.00012207 10 0.00012207 10C0.00012207 10 0.000122249 14.6496 0.597488 16.8768C0.926745 18.1068 1.89335 19.0734 3.12335 19.4026C5.35054 20 14.2851 20 14.2851 20C14.2851 20 23.2198 20 25.4469 19.4026C26.6769 19.0734 27.6436 18.1068 27.9728 16.8768C28.5702 14.6496 28.5702 10 28.5702 10C28.5702 10 28.5678 5.35042 27.9728 3.12324Z" fill="#FF0000"/>
<path d="M11.4254 14.2854L18.8478 10.0004L11.4254 5.71533V14.2854Z" fill="white"/>
<path d="M34.6026 13.0036L31.3947 1.41846H34.1934L35.3176 6.6701C35.6045 7.96361 35.8138 9.06662 35.9502 9.97913H36.0325C36.1266 9.32532 36.3383 8.22937 36.6652 6.68892L37.8293 1.41846H40.628L37.3801 13.0036V18.561H34.6003V13.0036H34.6026Z" fill="black"/>
<path d="M41.4698 18.1937C40.9054 17.8127 40.5032 17.22 40.2633 16.4157C40.0258 15.6114 39.9059 14.5437 39.9059 13.2078V11.3898C39.9059 10.0422 40.0423 8.95805 40.3151 8.14196C40.5879 7.32588 41.0136 6.72851 41.5921 6.35457C42.1707 5.98063 42.9303 5.79248 43.8711 5.79248C44.7977 5.79248 45.5385 5.98298 46.0982 6.36398C46.6556 6.74497 47.0648 7.34234 47.3235 8.15137C47.5822 8.96275 47.7116 10.0422 47.7116 11.3898V13.2078C47.7116 14.5437 47.5846 15.6161 47.333 16.4251C47.0813 17.2365 46.6721 17.8292 46.1076 18.2031C45.5432 18.5771 44.7765 18.7652 43.8099 18.7652C42.8127 18.7675 42.0343 18.5747 41.4698 18.1937ZM44.6354 16.2323C44.7906 15.8231 44.8706 15.1575 44.8706 14.2309V10.3292C44.8706 9.43077 44.793 8.77225 44.6354 8.35833C44.4778 7.94206 44.2027 7.7351 43.8075 7.7351C43.4266 7.7351 43.1561 7.94206 43.0009 8.35833C42.8433 8.77461 42.7657 9.43077 42.7657 10.3292V14.2309C42.7657 15.1575 42.8409 15.8254 42.9915 16.2323C43.142 16.6415 43.4124 16.8461 43.8075 16.8461C44.2027 16.8461 44.4778 16.6415 44.6354 16.2323Z" fill="black"/>
<path d="M56.8155 18.5634H54.6095L54.3649 17.03H54.3038C53.704 18.1871 52.8056 18.7656 51.6062 18.7656C50.776 18.7656 50.1622 18.4928 49.7671 17.9496C49.372 17.4039 49.1744 16.5526 49.1744 15.3955V6.03751H51.9943V15.2308C51.9943 15.7906 52.0554 16.188 52.1777 16.4256C52.3 16.6631 52.5046 16.783 52.7915 16.783C53.0361 16.783 53.2713 16.7078 53.4971 16.5573C53.7229 16.4067 53.8875 16.2162 53.998 15.9858V6.03516H56.8155V18.5634Z" fill="black"/>
<path d="M64.4757 3.68758H61.677V18.5629H58.9183V3.68758H56.1196V1.42041H64.4757V3.68758Z" fill="black"/>
<path d="M71.277 18.5634H69.071L68.8264 17.03H68.7653C68.1656 18.1871 67.2672 18.7656 66.0677 18.7656C65.2375 18.7656 64.6237 18.4928 64.2286 17.9496C63.8335 17.4039 63.6359 16.5526 63.6359 15.3955V6.03751H66.4558V15.2308C66.4558 15.7906 66.5169 16.188 66.6392 16.4256C66.7615 16.6631 66.9661 16.783 67.2531 16.783C67.4976 16.783 67.7328 16.7078 67.9586 16.5573C68.1844 16.4067 68.349 16.2162 68.4595 15.9858V6.03516H71.277V18.5634Z" fill="black"/>
<path d="M80.6092 8.0387C80.4375 7.24849 80.1623 6.67699 79.7814 6.32186C79.4004 5.96674 78.8759 5.79035 78.208 5.79035C77.6906 5.79035 77.2061 5.93616 76.7569 6.23014C76.3077 6.52412 75.9596 6.90747 75.715 7.38489H75.6939V0.785645H72.9775V18.5608H75.3058L75.5927 17.3755H75.6539C75.8726 17.7988 76.1995 18.1304 76.6346 18.3774C77.0697 18.622 77.5542 18.7443 78.0857 18.7443C79.0382 18.7443 79.7414 18.3045 80.1906 17.4272C80.6398 16.5476 80.8655 15.1765 80.8655 13.3092V11.3266C80.8655 9.92722 80.7785 8.82892 80.6092 8.0387ZM78.0245 13.1492C78.0245 14.0617 77.9869 14.7767 77.9116 15.2941C77.8364 15.8115 77.7117 16.1808 77.533 16.3971C77.3566 16.6158 77.1167 16.724 76.818 16.724C76.5852 16.724 76.3712 16.6699 76.1736 16.5594C75.9761 16.4512 75.8162 16.2866 75.6939 16.0702V8.96062C75.7879 8.6196 75.9526 8.34209 76.1854 8.12337C76.4159 7.90465 76.6699 7.79646 76.9403 7.79646C77.2273 7.79646 77.4483 7.90935 77.6036 8.13278C77.7611 8.35855 77.8693 8.73485 77.9305 9.26636C77.9916 9.79787 78.0222 10.5528 78.0222 11.5335V13.1492H78.0245Z" fill="black"/>
<path d="M84.8659 13.8712C84.8659 14.6755 84.8894 15.2776 84.9365 15.6798C84.9835 16.0819 85.0823 16.3736 85.2328 16.5594C85.3833 16.7428 85.6138 16.8345 85.9266 16.8345C86.3476 16.8345 86.6392 16.6699 86.7944 16.343C86.952 16.0161 87.0367 15.4705 87.0508 14.7085L89.4826 14.8519C89.4967 14.9601 89.5037 15.1106 89.5037 15.3011C89.5037 16.4582 89.1862 17.3237 88.5536 17.8952C87.921 18.4667 87.0249 18.7536 85.8678 18.7536C84.4779 18.7536 83.5042 18.3185 82.9468 17.446C82.3871 16.5735 82.1096 15.2259 82.1096 13.4008V11.2136C82.1096 9.33452 82.3989 7.96105 82.9774 7.09558C83.556 6.2301 84.5461 5.79736 85.9501 5.79736C86.9167 5.79736 87.6599 5.97375 88.1773 6.32888C88.6947 6.684 89.0592 7.23433 89.2709 7.98457C89.4826 8.7348 89.5884 9.76961 89.5884 11.0913V13.2362H84.8659V13.8712ZM85.2234 7.96811C85.0799 8.14449 84.9859 8.43377 84.9365 8.83593C84.8894 9.2381 84.8659 9.84722 84.8659 10.6657V11.5641H86.9285V10.6657C86.9285 9.86133 86.9003 9.25221 86.8462 8.83593C86.7921 8.41966 86.6933 8.12803 86.5498 7.95635C86.4064 7.78702 86.1853 7.7 85.8866 7.7C85.5856 7.70235 85.3645 7.79172 85.2234 7.96811Z" fill="black"/>
</g>
<path d="M102.13 6.4051V7.0551C102.13 10.5051 100.6 12.5351 97.2501 12.5351H96.7401V18.5351H94.0001V1.4751H97.4901C100.68 1.4751 102.13 2.8251 102.13 6.4051ZM99.2501 6.6551C99.2501 4.1651 98.8001 3.5651 97.2501 3.5651H96.7401V10.5651H97.2101C98.6801 10.5651 99.2101 9.5051 99.2101 7.1951L99.2501 6.6551Z" fill="black"/>
<path d="M108.6 5.88514L108.46 9.13514C107.29 8.89514 106.33 9.05514 105.86 9.82514V18.6051H103.19V6.05514H105.36L105.6 8.76514H105.7C105.98 6.76514 106.9 5.76514 108.09 5.76514C108.26 5.78514 108.44 5.82514 108.6 5.88514Z" fill="black"/>
<path d="M111.73 13.3047V13.9347C111.73 16.1447 111.85 16.9347 112.79 16.9347C113.73 16.9347 113.89 16.2447 113.91 14.8147L116.34 14.9547C116.52 17.6547 115.11 18.8547 112.73 18.8547C109.83 18.8547 108.97 16.9547 108.97 13.5047V11.2747C108.97 7.63475 109.97 5.86475 112.81 5.86475C115.65 5.86475 116.45 7.37475 116.45 11.1547V13.3047H111.73ZM111.73 10.7247V11.6247H113.79V10.7347C113.79 8.43475 113.63 7.73475 112.79 7.73475C111.95 7.73475 111.79 8.40475 111.79 10.7347L111.73 10.7247Z" fill="black"/>
<path d="M130.48 9.15534V18.6153H127.66V9.36534C127.66 8.36534 127.39 7.83534 126.78 7.83534C126.24 7.85534 125.76 8.17534 125.53 8.65534C125.54 8.82534 125.54 8.99534 125.53 9.16534V18.6253H122.74V9.36534C122.74 8.36534 122.47 7.83534 121.86 7.83534C121.33 7.85534 120.86 8.16534 120.63 8.63534V18.6353H117.86V6.05534H120.09L120.34 7.64534C120.85 6.52534 121.97 5.79534 123.2 5.78534C124.25 5.71534 125.18 6.45534 125.36 7.48534C125.91 6.47534 126.97 5.83534 128.12 5.82534C129.86 5.83534 130.48 7.05534 130.48 9.15534Z" fill="black"/>
<path d="M131.86 2.88502C131.86 1.53502 132.35 1.14502 133.39 1.14502C134.43 1.14502 134.92 1.59502 134.92 2.88502C134.92 4.17502 134.45 4.62502 133.39 4.62502C132.33 4.62502 131.86 4.27502 131.86 2.88502ZM132.05 6.05502H134.75V18.615H132.05V6.05502Z" fill="black"/>
<path d="M143.96 6.05518V18.6152H141.76L141.51 17.0552H141.45C140.99 18.1352 139.92 18.8252 138.75 18.7952C137.08 18.7952 136.32 17.7352 136.32 15.4252V6.05518H139.14V15.2452C139.14 16.3452 139.37 16.7952 139.94 16.7952C140.46 16.7752 140.92 16.4652 141.14 15.9952V6.05518H143.96Z" fill="black"/>
<path d="M158.26 9.15454V18.6145H155.44V9.36454C155.44 8.36454 155.17 7.83454 154.56 7.83454C154.02 7.85454 153.54 8.17454 153.31 8.65454C153.32 8.82454 153.32 8.99454 153.31 9.16454V18.6245H150.52V9.36454C150.52 8.36454 150.25 7.83454 149.64 7.83454C149.11 7.85454 148.64 8.16454 148.41 8.63454V18.6345H145.6V6.05454H147.86L148.1 7.64454C148.61 6.52454 149.73 5.79454 150.96 5.78454C152 5.71454 152.93 6.42454 153.13 7.44454C153.68 6.45454 154.73 5.83454 155.86 5.82454C157.61 5.83454 158.26 7.05454 158.26 9.15454Z" fill="black"/>
<defs>
<clipPath id="clip0_201_2740">
<rect width="90" height="20" fill="white"/>
</clipPath>
</defs>
</svg>
